# Blender v2.80 (sub 75) OBJ File: 'carrier_Boxen.blend'
# www.blender.org
mtllib carrier_Boxen.mtl
o Hanger
v 10.645911 -1.694570 54.259304
v 10.645911 -1.694553 -48.688740
v -0.997165 -1.694553 -48.688740
v -0.997165 -1.694570 54.259304
v 9.283671 3.145973 54.259304
v 9.283671 3.145990 -48.688740
v 10.645911 2.468969 -48.688740
v 10.645911 2.468952 54.259304
v 0.365075 3.145973 54.259304
v 0.365075 3.145990 -48.688740
v -0.997165 2.468952 54.259304
v -0.997165 2.468969 -48.688740
vt 0.375065 0.000000
vt 0.375065 1.000000
vt 0.750008 1.000000
vt 0.750008 0.000000
vt 0.046879 0.000000
vt 0.046879 1.000000
vt 0.000000 1.000000
vt 0.000000 0.000000
vt 0.328278 0.000000
vt 0.328278 1.000000
vt 0.383521 0.000000
vt 0.383521 1.000000
vt 0.749878 0.000000
vt 0.749878 1.000000
vt 0.922934 1.000000
vt 0.922934 0.000000
vt 0.750009 1.000000
vt 0.750008 0.000000
vt 0.922930 0.000000
vt 0.922931 1.000000
vn 0.0000 1.0000 0.0000
vn -0.2286 -0.9735 -0.0000
vn -0.4451 -0.8955 -0.0000
vn 0.2286 -0.9735 -0.0000
vn 0.4451 -0.8955 -0.0000
vn 1.0000 0.0000 0.0000
vn -1.0000 0.0000 0.0000
usemtl HangerMaterial
s 1
f 1/1/1 2/2/1 3/3/1 4/4/1
f 5/5/2 6/6/2 7/7/3 8/8/3
f 9/9/4 10/10/4 6/6/2 5/5/2
f 10/10/4 9/9/4 11/11/5 12/12/5
f 4/13/6 3/14/6 12/15/6 11/16/6
f 2/17/7 1/18/7 8/19/7 7/20/7
o Hull
v -4.568942 -6.795304 2.785283
v -4.568942 -14.871394 2.785281
v -4.568942 -14.871392 -8.983185
v -4.568942 -11.712391 -12.142184
v -4.568942 -6.795301 -12.142183
v -13.655649 6.683104 -22.951725
v -13.655649 11.600193 -22.951725
v -4.568942 11.600193 -22.951725
v -4.568942 6.683104 -22.951725
v -13.655649 14.759192 -5.862350
v -4.568942 14.759192 -5.862350
v -4.568942 14.759193 -19.792723
v -13.655649 14.759193 -19.792723
v -13.655649 -6.795304 2.785283
v -13.655649 -14.871394 2.785281
v -4.568942 6.683101 -5.862351
v -13.655649 6.683101 -5.862351
v -13.655649 -11.712391 -12.142184
v -13.655649 -6.795301 -12.142183
v -13.655649 -14.871392 -8.983185
v -13.655649 3.461765 -20.368246
v -13.655649 3.461762 -3.795567
v -13.655649 -3.573965 0.718498
v -13.655649 -3.573963 -14.725665
v 14.217689 -6.795295 -48.688740
v 10.645911 -1.694553 -48.688740
v 10.645911 2.468969 -48.688740
v 14.217689 6.683108 -48.688740
v 9.283671 3.145990 -48.688740
v 0.365075 3.145990 -48.688740
v -4.568942 6.683108 -48.688740
v 18.109560 3.459794 -48.688740
v 18.109560 -3.571982 -48.688740
v -0.997165 2.468969 -48.688740
v -0.997165 -1.694553 -48.688740
v -4.568942 -6.795295 -48.688740
v -4.568942 -6.795312 54.259304
v -4.568942 6.683091 54.259304
v -4.568942 6.683096 24.198479
v -4.568942 -6.795308 28.522293
v -4.568942 6.683105 -35.820232
v -4.568942 -6.795299 -30.415462
v -13.655649 -3.573960 -31.707201
v -13.655649 3.461767 -34.528492
v 14.217689 -6.795312 54.259304
v 10.645911 -1.694570 54.259304
v -0.997165 -1.694570 54.259304
v 18.109560 -3.571998 54.259304
v 18.109560 3.459777 54.259304
v 14.217689 6.683091 54.259304
v 10.645911 2.468952 54.259304
v 0.365075 3.145973 54.259304
v 9.283671 3.145973 54.259304
v -0.997165 2.468952 54.259304
v -13.655649 -3.573970 27.488901
v -13.655649 3.461757 25.231869
vt 0.917969 0.595703
vt 0.917969 0.517578
vt 0.802734 0.517578
vt 0.773438 0.546875
vt 0.773438 0.595703
vt 0.785156 0.914062
vt 0.785156 0.962891
vt 0.873047 0.962891
vt 0.873047 0.914062
vt 0.833984 0.892578
vt 0.833984 0.804688
vt 0.697266 0.804688
vt 0.697266 0.892578
vt 0.873047 0.992188
vt 0.785156 0.992188
vt 0.732422 0.410156
vt 0.732422 0.332031
vt 0.820312 0.332031
vt 0.820312 0.410156
vt 0.667969 0.726562
vt 0.667969 0.773438
vt 0.833984 0.726562
vt 0.777344 0.914062
vt 0.777344 0.992188
vt 0.687500 0.992188
vt 0.687500 0.914062
vt 0.916016 0.410156
vt 0.916016 0.361328
vt 0.828125 0.361328
vt 0.828125 0.410156
vt 0.917969 0.429688
vt 0.802734 0.429688
vt 0.916016 0.332031
vt 0.828125 0.332031
vt 0.667969 0.726562
vt 0.693359 0.695312
vt 0.853516 0.695312
vt 0.833984 0.726562
vt 0.773438 0.546875
vt 0.802734 0.517578
vt 0.917969 0.517578
vt 0.917969 0.595703
vt 0.773438 0.595703
vt 0.697266 0.804688
vt 0.667969 0.773438
vt 0.833984 0.804688
vt 0.896484 0.626953
vt 0.748047 0.626953
vt 0.810547 0.000000
vt 0.845703 0.050781
vt 0.845703 0.089844
vt 0.810547 0.130859
vt 0.857422 0.097656
vt 0.945312 0.097656
vt 0.992188 0.130859
vt 0.775391 0.099609
vt 0.775391 0.031250
vt 0.958984 0.089844
vt 0.958984 0.050781
vt 0.992188 0.000000
vt 0.408203 1.000000
vt 0.539062 1.000000
vt 0.539062 0.707031
vt 0.408203 0.748047
vt 0.712891 0.130859
vt 0.625000 0.099609
vt 0.625000 0.130859
vt 0.712891 0.261719
vt 0.712891 0.128906
vt 0.625000 0.162109
vt 0.625000 0.230469
vt 0.958984 0.150391
vt 0.923828 0.199219
vt 0.812500 0.199219
vt 0.777344 0.150391
vt 0.998047 0.181641
vt 0.998047 0.250000
vt 0.958984 0.281250
vt 0.923828 0.240234
vt 0.777344 0.281250
vt 0.824219 0.246094
vt 0.912109 0.246094
vt 0.812500 0.240234
vt 0.539062 0.000000
vt 0.408203 0.000000
vt 0.408203 0.175781
vt 0.539062 0.125000
vt 0.712891 0.000000
vt 0.625000 0.031250
vt 0.625000 0.000000
vt 0.625000 0.029297
vt 0.712891 -0.001953
vt 0.712891 0.130859
vt 0.625000 0.097656
vt 0.089844 1.000000
vt 0.273438 0.644531
vt 0.273438 0.820312
vt 0.273438 1.000000
vt 0.273438 0.000000
vt 0.273438 1.000000
vt 0.312500 1.000000
vt 0.312500 0.000000
vt 0.273438 0.000000
vt 0.089844 0.583984
vt 0.089844 0.292969
vt 0.089844 0.000000
vt 0.089844 1.000000
vt 0.089844 0.875000
vt 0.089844 0.750000
vt 0.273438 1.000000
vt 0.273438 0.000000
vt 0.273438 0.248047
vt 0.273438 0.500000
vt 0.089844 0.000000
vt 0.001953 0.564453
vt 0.001953 0.279297
vt 0.625000 0.130859
vt 0.625000 0.099609
vt 0.712891 0.130859
vt 0.089844 0.644531
vt 0.001953 0.669922
vt 0.001953 0.835938
vt 0.089844 0.820312
vt 0.001953 0.863281
vt 0.001953 0.724609
vt 0.625000 0.000000
vt 0.625000 0.031250
vt 0.712891 0.000000
vt 0.312500 0.000000
vt 0.312500 1.000000
vt 0.380859 0.000000
vt 0.380859 1.000000
vt 0.001953 0.519531
vt 0.089844 0.500000
vt 0.089844 0.248047
vt 0.001953 0.257812
vt 0.439453 0.480469
vt 0.439453 0.738281
vt 0.507812 0.716797
vt 0.507812 0.435547
vt 0.507812 0.275391
vt 0.507812 0.136719
vt 0.439453 0.164062
vt 0.439453 0.330078
vn 1.0000 0.0000 0.0000
vn 0.0000 -0.3316 -0.9434
vn 0.0000 0.3827 -0.9239
vn 0.0000 1.0000 0.0000
vn 0.0000 0.9239 -0.3827
vn 0.0000 0.2814 0.9596
vn 0.0000 -0.0000 1.0000
vn -0.0845 0.8808 0.4658
vn -0.0835 -0.8917 -0.4449
vn 0.0000 -0.3827 -0.9239
vn 0.0000 -1.0000 -0.0000
vn 0.0000 -0.9239 -0.3827
vn -1.0000 0.0000 0.0000
vn 0.0000 0.0000 -1.0000
vn 0.0000 -0.6256 -0.7801
vn 0.0000 -0.3722 -0.9282
vn 0.0000 0.5400 0.8417
vn 0.0000 0.3055 0.9522
vn 0.2244 -0.9745 -0.0001
vn -0.1695 -0.9855 -0.0000
vn 0.2244 -0.9745 -0.0000
vn 0.9049 -0.4255 -0.0000
vn 0.2244 0.9745 0.0001
vn -0.1695 0.9855 -0.0000
vn -0.1128 0.9936 0.0000
vn 0.2244 0.9745 0.0000
vn -0.1128 -0.9936 -0.0000
vn -0.1923 0.8534 0.4845
vn -0.3341 0.9425 0.0000
vn -0.1874 -0.8795 -0.4375
vn -0.3341 -0.9425 -0.0000
vn 0.9049 0.4255 0.0000
usemtl default
s 1
f 13/21/8 14/22/8 15/23/8 16/24/8 17/25/8
f 18/26/9 19/27/10 20/28/10 21/29/9
f 22/30/11 23/31/11 24/32/12 25/33/12
f 24/34/12 20/28/10 19/27/10 25/35/12
f 26/36/13 27/37/14 14/38/14 13/39/13
f 21/40/8 20/41/8 24/32/8 23/31/8 28/42/8
f 28/43/15 23/44/14 22/45/14 29/46/13
f 17/47/16 16/48/17 30/49/17 31/50/9
f 14/22/18 27/51/18 32/52/19 15/23/19
f 30/49/17 16/48/17 15/53/19 32/54/19
f 18/55/20 33/56/20 34/57/20 29/58/20
f 30/59/20 32/60/20 27/61/20 26/62/20 31/63/20
f 25/64/20 19/65/20 18/55/20 29/58/20 22/66/20
f 35/67/20 36/68/20 31/63/20 26/62/20
f 34/57/20 33/56/20 36/68/20 35/67/20
f 37/69/21 38/70/21 39/71/21 40/72/21
f 40/72/21 41/73/21 42/74/21 43/75/21
f 40/72/21 39/71/21 41/73/21
f 40/72/21 44/76/21 45/77/21 37/69/21
f 43/75/21 46/78/21 47/79/21 48/80/21
f 49/81/20 50/82/20 51/83/20 52/84/20
f 48/80/21 47/79/21 38/70/21 37/69/21
f 21/85/9 33/86/22 18/87/9
f 46/78/21 43/75/21 42/74/21
f 53/88/23 54/89/23 55/90/23 56/91/23
f 57/92/14 58/93/14 59/94/14 49/95/14
f 57/92/14 60/96/14 61/97/14 62/98/14
f 62/98/14 63/99/14 58/93/14 57/92/14
f 50/100/14 64/101/14 65/102/14 62/98/14
f 50/100/14 66/103/14 64/101/14
f 43/104/20 48/105/20 54/106/20 53/107/20
f 49/95/14 59/94/14 66/103/14 50/100/14
f 13/108/13 35/109/24 26/110/13
f 63/99/14 62/98/14 65/102/14
f 67/111/25 52/112/25 51/113/25 68/114/25
f 37/115/26 17/116/16 54/117/27 48/118/18
f 57/119/28 37/120/26 45/121/29 60/122/29
f 62/123/30 28/124/15 51/125/31 50/126/11
f 43/127/11 53/128/31 21/129/32 40/130/33
f 49/131/18 52/132/27 13/133/34 57/134/28
f 28/124/15 62/123/30 40/130/33 21/129/32
f 28/124/15 34/135/35 68/136/36 51/125/31
f 29/137/13 34/138/35 28/139/15
f 17/116/16 37/115/26 57/134/28 13/133/34
f 17/140/16 36/141/37 55/142/38 54/143/27
f 21/129/32 53/128/31 56/144/36 33/145/36
f 31/146/9 36/147/37 17/148/16
f 61/149/39 44/150/39 40/130/33 62/123/30
f 60/151/29 45/152/29 44/150/39 61/149/39
f 35/153/38 13/154/34 52/155/27 67/156/38
f 35/157/20 67/158/20 68/159/20 34/160/20
f 33/161/20 56/162/20 55/163/20 36/164/20
