# Blender v2.80 (sub 75) OBJ File: 'turret_large1.blend'
# www.blender.org
mtllib turret_large1_base.mtl
o turret_large1_base_Cylinder
v 0.000000 -0.040000 -0.400000
v -0.000000 0.040000 -0.101291
v 0.282843 -0.040000 -0.282843
v 0.071624 0.040000 -0.071624
v 0.400000 -0.040000 0.000000
v 0.101291 0.040000 0.000000
v 0.282843 -0.040000 0.282843
v 0.071624 0.040000 0.071624
v -0.000000 -0.040000 0.400000
v -0.000000 0.040000 0.101291
v -0.282843 -0.040000 0.282843
v -0.071624 0.040000 0.071624
v -0.400000 -0.040000 -0.000000
v -0.101291 0.040000 -0.000000
v -0.282843 -0.040000 -0.282843
v -0.071624 0.040000 -0.071624
v 0.261275 0.040000 -0.261275
v -0.000000 0.040000 -0.369498
v 0.369498 0.040000 0.000000
v 0.261275 0.040000 0.261275
v -0.000000 0.040000 0.369498
v -0.261275 0.040000 0.261275
v -0.369498 0.040000 -0.000000
v -0.261275 0.040000 -0.261275
v 0.071624 0.112955 -0.071624
v 0.000000 0.112955 -0.101291
v 0.101291 0.112955 0.000000
v 0.071624 0.112955 0.071624
v -0.000000 0.112955 0.101291
v -0.071624 0.112955 0.071624
v -0.101291 0.112955 -0.000000
v -0.071624 0.112955 -0.071624
vt 0.800781 0.687500
vt 0.800781 0.697266
vt 0.746094 0.697266
vt 0.746094 0.687500
vt 0.800781 0.687500
vt 0.800781 0.697266
vt 0.746094 0.697266
vt 0.746094 0.687500
vt 0.691406 0.697266
vt 0.691406 0.687500
vt 0.746094 0.687500
vt 0.746094 0.697266
vt 0.691406 0.697266
vt 0.691406 0.687500
vt 0.800781 0.687500
vt 0.800781 0.697266
vt 0.746094 0.697266
vt 0.746094 0.687500
vt 0.800781 0.687500
vt 0.800781 0.697266
vt 0.746094 0.697266
vt 0.746094 0.687500
vt 0.871094 0.109375
vt 0.863281 0.109375
vt 0.863281 0.101562
vt 0.871094 0.101562
vt 0.691406 0.697266
vt 0.691406 0.687500
vt 0.746094 0.687500
vt 0.746094 0.697266
vt 0.691406 0.697266
vt 0.691406 0.687500
vt 0.777344 0.132812
vt 0.787109 0.128906
vt 0.791016 0.119141
vt 0.787109 0.109375
vt 0.777344 0.105469
vt 0.767578 0.109375
vt 0.763672 0.119141
vt 0.767578 0.128906
vt 0.718750 0.640625
vt 0.724609 0.638672
vt 0.740234 0.654297
vt 0.718750 0.662109
vt 0.726562 0.632812
vt 0.748047 0.632812
vt 0.724609 0.626953
vt 0.740234 0.611328
vt 0.718750 0.625000
vt 0.718750 0.603516
vt 0.712891 0.626953
vt 0.697266 0.611328
vt 0.710938 0.632812
vt 0.689453 0.632812
vt 0.712891 0.638672
vt 0.697266 0.654297
vt 0.761719 0.119141
vt 0.761719 0.125000
vt 0.757812 0.128906
vt 0.751953 0.128906
vt 0.748047 0.125000
vt 0.748047 0.119141
vt 0.751953 0.115234
vt 0.757812 0.115234
vt 0.839844 0.101562
vt 0.847656 0.101562
vt 0.847656 0.109375
vt 0.839844 0.109375
vt 0.871094 0.101562
vt 0.878906 0.101562
vt 0.878906 0.109375
vt 0.871094 0.109375
vt 0.886719 0.101562
vt 0.886719 0.109375
vt 0.894531 0.109375
vt 0.886719 0.109375
vt 0.886719 0.101562
vt 0.894531 0.101562
vt 0.855469 0.109375
vt 0.855469 0.101562
vt 0.855469 0.101562
vt 0.855469 0.109375
vt 0.902344 0.109375
vt 0.902344 0.101562
vn 0.3609 0.3322 -0.8714
vn 0.8714 0.3322 -0.3609
vn 0.8714 0.3322 0.3609
vn 0.3609 0.3322 0.8714
vn -0.3609 0.3322 0.8714
vn -0.8714 0.3322 0.3609
vn -0.3827 0.0000 0.9239
vn -0.8714 0.3322 -0.3609
vn -0.3609 0.3322 -0.8714
vn 0.0000 -1.0000 0.0000
vn 0.0000 1.0000 0.0000
vn 0.9239 -0.0000 0.3827
vn 0.3827 -0.0000 -0.9239
vn -0.3827 0.0000 -0.9239
vn -0.9239 0.0000 0.3827
vn 0.3827 -0.0000 0.9239
vn 0.9239 -0.0000 -0.3827
vn -0.9239 0.0000 -0.3827
usemtl capitalShipHullTexture
s off
f 1/1/1 18/2/1 17/3/1 3/4/1
f 3/5/2 17/6/2 19/7/2 5/8/2
f 5/8/3 19/7/3 20/9/3 7/10/3
f 7/11/4 20/12/4 21/13/4 9/14/4
f 9/15/5 21/16/5 22/17/5 11/18/5
f 11/19/6 22/20/6 23/21/6 13/22/6
f 12/23/7 10/24/7 29/25/7 30/26/7
f 13/22/8 23/21/8 24/27/8 15/28/8
f 15/29/9 24/30/9 18/31/9 1/32/9
f 1/33/10 3/34/10 5/35/10 7/36/10 9/37/10 11/38/10 13/39/10 15/40/10
f 2/41/11 4/42/11 17/43/11 18/44/11
f 4/42/11 6/45/11 19/46/11 17/43/11
f 6/45/11 8/47/11 20/48/11 19/46/11
f 8/47/11 10/49/11 21/50/11 20/48/11
f 10/49/11 12/51/11 22/52/11 21/50/11
f 12/51/11 14/53/11 23/54/11 22/52/11
f 14/53/11 16/55/11 24/56/11 23/54/11
f 16/55/11 2/41/11 18/44/11 24/56/11
f 25/57/11 26/58/11 32/59/11 31/60/11 30/61/11 29/62/11 28/63/11 27/64/11
f 8/65/12 6/66/12 27/67/12 28/68/12
f 4/69/13 2/70/13 26/71/13 25/72/13
f 2/70/14 16/73/14 32/74/14 26/71/14
f 14/75/15 12/76/15 30/77/15 31/78/15
f 10/24/16 8/79/16 28/80/16 29/25/16
f 6/66/17 4/81/17 25/82/17 27/67/17
f 16/83/18 14/75/18 31/78/18 32/84/18
