# Blender v2.80 (sub 75) OBJ File: 'turret_large1.blend'
# www.blender.org
mtllib turret_large1_barrel.mtl
o turret_large1_barrel_Cylinder.001
v 0.000000 0.169838 -0.050000
v 0.035355 0.169838 -0.035355
v 0.050000 0.169838 0.000000
v 0.035355 0.169838 0.035355
v -0.000000 0.169838 0.050000
v -0.035355 0.169838 0.035355
v -0.050000 0.169838 -0.000000
v -0.035355 0.169838 -0.035355
v 0.000000 0.389193 -0.050000
v 0.035355 0.389193 -0.035355
v 0.050000 0.389193 0.000000
v 0.035355 0.389193 0.035355
v -0.000000 0.389193 0.050000
v -0.035355 0.389193 0.035355
v -0.050000 0.389193 -0.000000
v -0.035355 0.389193 -0.035355
v 0.000000 0.706239 -0.040477
v -0.000000 0.402924 -0.068239
v 0.040477 0.706239 0.000000
v -0.000000 0.706239 0.040477
v -0.040477 0.706239 -0.000000
v 0.048252 0.402924 -0.048252
v 0.068239 0.402924 0.000000
v 0.048252 0.402924 0.048252
v -0.000000 0.402924 0.068239
v -0.048252 0.402924 0.048252
v -0.068239 0.402924 -0.000000
v -0.048252 0.402924 -0.048252
v -0.000000 0.492208 -0.068239
v 0.000000 0.492686 -0.056585
v 0.000000 0.537567 -0.056585
v -0.000000 0.538045 -0.068239
v 0.048252 0.538045 -0.048252
v 0.040012 0.537567 -0.040012
v 0.040012 0.492686 -0.040012
v 0.048252 0.492208 -0.048252
v 0.068239 0.538045 0.000000
v 0.056586 0.537567 0.000000
v 0.056586 0.492686 0.000000
v 0.068239 0.492208 0.000000
v 0.048252 0.538045 0.048252
v 0.040012 0.537567 0.040012
v 0.040012 0.492686 0.040012
v 0.048252 0.492208 0.048252
v -0.000000 0.538045 0.068239
v 0.000000 0.537567 0.056585
v 0.000000 0.492686 0.056585
v -0.000000 0.492208 0.068239
v -0.048252 0.538045 0.048252
v -0.040012 0.537567 0.040012
v -0.040012 0.492686 0.040012
v -0.048252 0.492208 0.048252
v -0.068239 0.538045 -0.000000
v -0.056585 0.537567 -0.000000
v -0.056585 0.492686 -0.000000
v -0.068239 0.492208 -0.000000
v -0.048252 0.538045 -0.048252
v -0.040012 0.537567 -0.040012
v -0.040012 0.492686 -0.040012
v -0.048252 0.492208 -0.048252
v 0.032169 0.706239 -0.032169
v -0.000000 0.706239 -0.045494
v 0.045494 0.706239 0.000000
v 0.032169 0.706239 0.032169
v -0.000000 0.706239 0.045494
v -0.032169 0.706239 0.032169
v -0.045494 0.706239 -0.000000
v -0.032169 0.706239 -0.032169
v 0.000000 0.893799 -0.040477
v 0.040477 0.893799 0.000000
v -0.000000 0.893799 0.040477
v -0.040477 0.893799 -0.000000
vt 0.072266 0.285156
vt 0.072266 0.302734
vt 0.080078 0.306641
vt 0.080078 0.281250
vt 0.072266 0.285156
vt 0.072266 0.302734
vt 0.080078 0.306641
vt 0.080078 0.281250
vt 0.072266 0.285156
vt 0.072266 0.302734
vt 0.080078 0.306641
vt 0.080078 0.281250
vt 0.072266 0.285156
vt 0.072266 0.302734
vt 0.080078 0.306641
vt 0.080078 0.281250
vt 0.072266 0.285156
vt 0.072266 0.302734
vt 0.080078 0.306641
vt 0.080078 0.281250
vt 0.072266 0.285156
vt 0.072266 0.302734
vt 0.080078 0.306641
vt 0.080078 0.281250
vt 0.072266 0.285156
vt 0.072266 0.302734
vt 0.080078 0.306641
vt 0.080078 0.281250
vt 0.072266 0.285156
vt 0.072266 0.302734
vt 0.080078 0.306641
vt 0.080078 0.281250
vt 0.890724 0.154229
vt 0.845460 0.109056
vt 0.845460 0.045173
vt 0.890724 0.000000
vt 0.954736 0.000000
vt 1.000000 0.045173
vt 1.000000 0.109056
vt 0.954736 0.154229
vt 0.710938 0.193359
vt 0.644531 0.193359
vt 0.644531 0.183594
vt 0.710938 0.183594
vt 0.710938 0.193359
vt 0.644531 0.193359
vt 0.644531 0.183594
vt 0.710938 0.183594
vt 0.710938 0.193359
vt 0.644531 0.193359
vt 0.644531 0.183594
vt 0.710938 0.183594
vt 0.710938 0.193359
vt 0.644531 0.193359
vt 0.644531 0.183594
vt 0.710938 0.183594
vt 0.710938 0.193359
vt 0.644531 0.193359
vt 0.644531 0.183594
vt 0.710938 0.183594
vt 0.710938 0.193359
vt 0.644531 0.193359
vt 0.644531 0.183594
vt 0.710938 0.183594
vt 0.710938 0.193359
vt 0.644531 0.193359
vt 0.644531 0.183594
vt 0.710938 0.183594
vt 0.710938 0.193359
vt 0.644531 0.193359
vt 0.644531 0.183594
vt 0.710938 0.183594
vt 0.035156 0.275391
vt 0.031250 0.328125
vt 0.019531 0.328125
vt 0.015625 0.275391
vt 0.035156 0.275391
vt 0.031250 0.328125
vt 0.019531 0.328125
vt 0.015625 0.275391
vt 0.035156 0.275391
vt 0.031250 0.328125
vt 0.019531 0.328125
vt 0.015625 0.275391
vt 0.031250 0.328125
vt 0.035156 0.275391
vt 0.019531 0.328125
vt 0.015625 0.275391
vt 0.035156 0.275391
vt 0.031250 0.328125
vt 0.019531 0.328125
vt 0.015625 0.275391
vt 0.035156 0.275391
vt 0.031250 0.328125
vt 0.019531 0.328125
vt 0.015625 0.275391
vt 0.039062 0.376953
vt 0.039062 0.406250
vt 0.052734 0.406250
vt 0.052734 0.376953
vt 0.457031 0.824219
vt 0.460938 0.820312
vt 0.474609 0.828125
vt 0.474609 0.832031
vt 0.777344 0.349609
vt 0.777344 0.357422
vt 0.761719 0.357422
vt 0.761719 0.349609
vt 0.460938 0.820312
vt 0.457031 0.824219
vt 0.474609 0.832031
vt 0.474609 0.828125
vt 0.052734 0.376953
vt 0.052734 0.406250
vt 0.066406 0.406250
vt 0.066406 0.376953
vt 0.449219 0.806641
vt 0.453125 0.806641
vt 0.792969 0.349609
vt 0.792969 0.357422
vt 0.453125 0.806641
vt 0.449219 0.806641
vt 0.039062 0.376953
vt 0.039062 0.406250
vt 0.457031 0.789062
vt 0.460938 0.792969
vt 0.777344 0.349609
vt 0.777344 0.357422
vt 0.761719 0.357422
vt 0.761719 0.349609
vt 0.460938 0.792969
vt 0.457031 0.789062
vt 0.052734 0.376953
vt 0.052734 0.406250
vt 0.066406 0.406250
vt 0.066406 0.376953
vt 0.474609 0.781250
vt 0.474609 0.785156
vt 0.792969 0.349609
vt 0.792969 0.357422
vt 0.474609 0.785156
vt 0.474609 0.781250
vt 0.039062 0.376953
vt 0.039062 0.406250
vt 0.492188 0.789062
vt 0.488281 0.792969
vt 0.777344 0.349609
vt 0.777344 0.357422
vt 0.761719 0.357422
vt 0.761719 0.349609
vt 0.488281 0.792969
vt 0.492188 0.789062
vt 0.052734 0.376953
vt 0.052734 0.406250
vt 0.066406 0.406250
vt 0.066406 0.376953
vt 0.500000 0.806641
vt 0.496094 0.806641
vt 0.792969 0.349609
vt 0.792969 0.357422
vt 0.496094 0.806641
vt 0.500000 0.806641
vt 0.039062 0.376953
vt 0.039062 0.406250
vt 0.492188 0.824219
vt 0.488281 0.820312
vt 0.777344 0.349609
vt 0.777344 0.357422
vt 0.761719 0.357422
vt 0.761719 0.349609
vt 0.488281 0.820312
vt 0.492188 0.824219
vt 0.066406 0.406250
vt 0.066406 0.376953
vt 0.792969 0.349609
vt 0.792969 0.357422
vt 0.474609 0.828125
vt 0.496094 0.806641
vt 0.500000 0.806641
vt 0.492188 0.824219
vt 0.474609 0.832031
vt 0.474609 0.785156
vt 0.474609 0.781250
vt 0.492188 0.789062
vt 0.453125 0.806641
vt 0.449219 0.806641
vt 0.457031 0.789062
vt 0.457031 0.824219
vt 0.693359 0.187500
vt 0.693359 0.201172
vt 0.644531 0.201172
vt 0.644531 0.187500
vt 0.644531 0.187500
vt 0.693359 0.187500
vt 0.693359 0.201172
vt 0.644531 0.201172
vt 0.644531 0.187500
vt 0.693359 0.187500
vt 0.693359 0.201172
vt 0.644531 0.201172
vt 0.644531 0.187500
vt 0.693359 0.187500
vt 0.693359 0.201172
vt 0.644531 0.201172
vt 0.751953 0.125000
vt 0.751953 0.119141
vt 0.757812 0.119141
vt 0.757812 0.125000
vn 0.5836 -0.7752 -0.2417
vn -0.5836 -0.7752 -0.2417
vn -0.2417 -0.7752 0.5836
vn 0.5836 -0.7752 0.2417
vn 0.2417 -0.7752 -0.5836
vn -0.2417 -0.7752 -0.5836
vn -0.5836 -0.7752 0.2417
vn 0.2417 -0.7752 0.5836
vn 0.0000 -1.0000 0.0000
vn -0.3827 0.0000 -0.9239
vn -0.9239 0.0000 -0.3827
vn -0.9239 0.0000 0.3827
vn -0.3827 0.0000 0.9239
vn 0.3827 0.0000 0.9239
vn 0.9239 0.0000 0.3827
vn 0.9239 0.0000 -0.3827
vn 0.3827 0.0000 -0.9239
vn 0.3797 0.1240 -0.9168
vn 0.9168 0.1240 -0.3797
vn 0.9168 0.1240 0.3797
vn 0.3797 0.1240 0.9168
vn -0.3797 0.1240 0.9168
vn -0.9168 0.1240 0.3797
vn -0.9168 0.1240 -0.3797
vn -0.3797 0.1240 -0.9168
vn -0.0170 0.9990 -0.0410
vn -0.0170 -0.9990 -0.0410
vn -0.0410 0.9990 -0.0170
vn -0.0410 -0.9990 -0.0170
vn -0.0410 0.9990 0.0170
vn -0.0410 -0.9990 0.0170
vn -0.0170 0.9990 0.0410
vn -0.0170 -0.9990 0.0410
vn 0.0170 0.9990 0.0410
vn 0.0170 -0.9990 0.0410
vn 0.0410 0.9990 0.0170
vn 0.0410 -0.9990 0.0170
vn 0.0410 0.9990 -0.0170
vn 0.0410 -0.9990 -0.0170
vn 0.0170 0.9990 -0.0410
vn 0.0170 -0.9990 -0.0410
vn 0.0000 1.0000 -0.0000
vn -0.7071 0.0000 -0.7071
vn 0.7071 0.0000 -0.7071
vn -0.7071 0.0000 0.7071
vn 0.7071 0.0000 0.7071
usemtl capitalShipHullTexture
s off
f 11/1/1 10/2/1 22/3/1 23/4/1
f 16/5/2 15/6/2 27/7/2 28/8/2
f 14/9/3 13/10/3 25/11/3 26/12/3
f 12/13/4 11/14/4 23/15/4 24/16/4
f 10/17/5 9/18/5 18/19/5 22/20/5
f 9/21/6 16/22/6 28/23/6 18/24/6
f 15/25/7 14/26/7 26/27/7 27/28/7
f 13/29/8 12/30/8 24/31/8 25/32/8
f 1/33/9 2/34/9 3/35/9 4/36/9 5/37/9 6/38/9 7/39/9 8/40/9
f 8/41/10 16/42/10 9/43/10 1/44/10
f 7/45/11 15/46/11 16/47/11 8/48/11
f 6/49/12 14/50/12 15/51/12 7/52/12
f 5/53/13 13/54/13 14/55/13 6/56/13
f 4/57/14 12/58/14 13/59/14 5/60/14
f 3/61/15 11/62/15 12/63/15 4/64/15
f 2/65/16 10/66/16 11/67/16 3/68/16
f 1/69/17 9/70/17 10/71/17 2/72/17
f 32/73/18 62/74/18 61/75/18 33/76/18
f 33/77/19 61/78/19 63/79/19 37/80/19
f 37/81/20 63/82/20 64/83/20 41/84/20
f 41/84/21 64/83/21 65/85/21 45/86/21
f 45/86/22 65/85/22 66/87/22 49/88/22
f 49/89/23 66/90/23 67/91/23 53/92/23
f 53/93/24 67/94/24 68/95/24 57/96/24
f 57/96/25 68/95/25 62/74/25 32/73/25
f 28/97/10 60/98/10 29/99/10 18/100/10
f 60/101/26 59/102/26 30/103/26 29/104/26
f 59/105/10 58/106/10 31/107/10 30/108/10
f 58/109/27 57/110/27 32/111/27 31/112/27
f 27/113/11 56/114/11 60/115/11 28/116/11
f 56/117/28 55/118/28 59/102/28 60/101/28
f 55/119/11 54/120/11 58/106/11 59/105/11
f 54/121/29 53/122/29 57/110/29 58/109/29
f 26/123/12 52/124/12 56/114/12 27/113/12
f 52/125/30 51/126/30 55/118/30 56/117/30
f 51/127/12 50/128/12 54/129/12 55/130/12
f 50/131/31 49/132/31 53/122/31 54/121/31
f 25/133/13 48/134/13 52/135/13 26/136/13
f 48/137/32 47/138/32 51/126/32 52/125/32
f 47/139/13 46/140/13 50/128/13 51/127/13
f 46/141/33 45/142/33 49/132/33 50/131/33
f 24/143/14 44/144/14 48/134/14 25/133/14
f 44/145/34 43/146/34 47/138/34 48/137/34
f 43/147/14 42/148/14 46/149/14 47/150/14
f 42/151/35 41/152/35 45/142/35 46/141/35
f 23/153/15 40/154/15 44/155/15 24/156/15
f 40/157/36 39/158/36 43/146/36 44/145/36
f 39/159/15 38/160/15 42/148/15 43/147/15
f 38/161/37 37/162/37 41/152/37 42/151/37
f 22/163/16 36/164/16 40/154/16 23/153/16
f 36/165/38 35/166/38 39/158/38 40/157/38
f 35/167/16 34/168/16 38/169/16 39/170/16
f 34/171/39 33/172/39 37/162/39 38/161/39
f 18/100/17 29/99/17 36/173/17 22/174/17
f 29/104/40 30/103/40 35/166/40 36/165/40
f 30/175/17 31/176/17 34/168/17 35/167/17
f 31/112/41 32/111/41 33/172/41 34/171/41
f 17/177/42 19/178/42 63/179/42 61/180/42 62/181/42
f 19/178/42 20/182/42 65/183/42 64/184/42 63/179/42
f 20/182/42 21/185/42 67/186/42 66/187/42 65/183/42
f 21/185/42 17/177/42 62/181/42 68/188/42 67/186/42
f 72/189/43 69/190/43 17/191/43 21/192/43
f 17/193/44 69/194/44 70/195/44 19/196/44
f 20/197/45 71/198/45 72/199/45 21/200/45
f 19/201/46 70/202/46 71/203/46 20/204/46
f 71/205/42 70/206/42 69/207/42 72/208/42
