# Blender v2.80 (sub 75) OBJ File: 'turret_large1.blend'
# www.blender.org
mtllib turret_large1.mtl
o turret_large1_body_Cube.001
v -0.123198 0.091804 0.291843
v -0.123198 0.338200 0.123198
v -0.123198 0.091804 -0.123198
v -0.123198 0.338200 -0.123198
v 0.123198 0.091804 0.291843
v 0.123198 0.338200 0.123198
v 0.123198 0.091804 -0.123198
v 0.123198 0.338200 -0.123198
v -0.123198 0.173936 0.291843
v -0.123198 0.256068 0.291843
v -0.123198 0.256068 -0.352310
v -0.123198 0.173936 -0.123198
v 0.123198 0.256068 -0.352310
v 0.123198 0.173936 -0.123198
v 0.123198 0.256068 0.291843
v 0.123198 0.173936 0.291843
v -0.223921 0.173936 -0.016087
v -0.223921 0.256068 -0.016087
v -0.223921 0.256068 -0.466798
v -0.223921 0.173936 -0.466798
v 0.223921 0.256068 -0.466798
v 0.223921 0.173936 -0.466798
v 0.223921 0.256068 -0.016087
v 0.223921 0.173936 -0.016087
v 0.073215 0.091804 -0.123198
v -0.073215 0.091804 -0.123198
v -0.073215 0.338200 -0.123198
v 0.073215 0.338200 -0.123198
v -0.073215 0.091804 0.291843
v 0.073215 0.091804 0.291843
v 0.073215 0.338200 0.123198
v -0.073215 0.338200 0.123198
v 0.073215 0.173936 0.291843
v -0.073215 0.173936 0.291843
v 0.073215 0.256068 0.291843
v -0.073215 0.256068 0.291843
v -0.073215 0.173936 -0.123198
v 0.073215 0.173936 -0.123198
v -0.073215 0.256068 -0.352310
v 0.073215 0.256068 -0.352310
v -0.074640 0.173936 -0.466798
v 0.074640 0.173936 -0.466798
v -0.074640 0.256068 -0.466798
v 0.074640 0.256068 -0.466798
v -0.073215 0.303226 -0.099220
v 0.073215 0.303226 -0.099220
v 0.073215 0.303226 0.034465
v -0.073215 0.303226 0.034465
v 0.073215 0.173087 0.134714
v -0.073215 0.173087 0.134714
v 0.073215 0.221094 0.134714
v -0.073215 0.221094 0.134714
vt 0.687500 0.621094
vt 0.703125 0.630859
vt 0.724609 0.630859
vt 0.744141 0.621094
vt 0.724609 0.646484
vt 0.724609 0.626953
vt 0.728516 0.626953
vt 0.728516 0.646484
vt 0.744141 0.621094
vt 0.724609 0.630859
vt 0.703125 0.630859
vt 0.687500 0.621094
vt 0.710938 0.589844
vt 0.710938 0.605469
vt 0.707031 0.605469
vt 0.707031 0.589844
vt 0.724609 0.626953
vt 0.728516 0.626953
vt 0.728516 0.589844
vt 0.724609 0.589844
vt 0.710938 0.626953
vt 0.707031 0.626953
vt 0.710938 0.607422
vt 0.710938 0.615234
vt 0.707031 0.615234
vt 0.707031 0.607422
vt 0.710938 0.621094
vt 0.707031 0.621094
vt 0.724609 0.607422
vt 0.724609 0.615234
vt 0.687500 0.615234
vt 0.687500 0.607422
vt 0.728516 0.589844
vt 0.736328 0.617188
vt 0.736328 0.658203
vt 0.724609 0.607422
vt 0.724609 0.615234
vt 0.728516 0.615234
vt 0.728516 0.607422
vt 0.724609 0.658203
vt 0.687500 0.607422
vt 0.687500 0.615234
vt 0.724609 0.615234
vt 0.724609 0.607422
vt 0.707031 0.646484
vt 0.697266 0.658203
vt 0.697266 0.617188
vt 0.755859 0.615234
vt 0.755859 0.621094
vt 0.714844 0.621094
vt 0.714844 0.615234
vt 0.724609 0.615234
vt 0.724609 0.621094
vt 0.736328 0.621094
vt 0.736328 0.615234
vt 0.714844 0.615234
vt 0.714844 0.621094
vt 0.755859 0.621094
vt 0.755859 0.615234
vt 0.707031 0.626953
vt 0.707031 0.589844
vt 0.697266 0.617188
vt 0.697266 0.658203
vt 0.710938 0.626953
vt 0.710938 0.658203
vt 0.728516 0.589844
vt 0.728516 0.626953
vt 0.736328 0.658203
vt 0.736328 0.617188
vt 0.724609 0.626953
vt 0.724609 0.658203
vt 0.697266 0.615234
vt 0.697266 0.621094
vt 0.710938 0.621094
vt 0.710938 0.615234
vt 0.710938 0.646484
vt 0.710938 0.658203
vt 0.707031 0.607422
vt 0.707031 0.615234
vt 0.710938 0.615234
vt 0.710938 0.607422
vt 0.728516 0.615234
vt 0.728516 0.621094
vt 0.724609 0.621094
vt 0.724609 0.615234
vt 0.724609 0.630859
vt 0.710938 0.630859
vt 0.710938 0.626953
vt 0.724609 0.626953
vt 0.728516 0.607422
vt 0.724609 0.607422
vt 0.724609 0.605469
vt 0.728516 0.605469
vt 0.687500 0.621094
vt 0.703125 0.630859
vt 0.710938 0.626953
vt 0.701172 0.619141
vt 0.707031 0.626953
vt 0.710938 0.626953
vt 0.710938 0.589844
vt 0.707031 0.589844
vt 0.724609 0.589844
vt 0.687500 0.621094
vt 0.687500 0.615234
vt 0.701172 0.615234
vt 0.701172 0.619141
vt 0.843750 0.351562
vt 0.843750 0.332031
vt 0.857422 0.332031
vt 0.857422 0.351562
vt 0.748047 0.119141
vt 0.748047 0.123047
vt 0.734375 0.123047
vt 0.734375 0.119141
vt 0.748047 0.128906
vt 0.734375 0.128906
vt 0.734375 0.117188
vt 0.748047 0.117188
vt 0.748047 0.107422
vt 0.734375 0.107422
vt 0.722656 0.626953
vt 0.687500 0.615234
vt 0.701172 0.615234
vt 0.703125 0.630859
vt 0.710938 0.626953
vt 0.724609 0.630859
vt 0.722656 0.626953
vt 0.710938 0.589844
vt 0.724609 0.589844
vt 0.724609 0.603516
vt 0.710938 0.603516
vn -1.0000 -0.0000 0.0000
vn 0.0000 0.9413 -0.3375
vn 1.0000 -0.0000 0.0000
vn 0.0000 0.8990 0.4378
vn 0.0000 -1.0000 0.0000
vn 0.0000 1.0000 -0.0000
vn 0.0000 0.0000 1.0000
vn 0.0000 0.0000 -1.0000
vn 0.9504 0.0000 0.3109
vn -0.9504 0.0000 0.3109
vn 0.0000 0.5655 0.8248
vn 0.0000 0.7735 0.6337
vn 0.0000 1.0000 -0.0054
usemtl capitalShipHullTexture
s off
f 10/1/1 2/2/1 4/3/1 11/4/1
f 40/5/2 28/6/2 8/7/2 13/8/2
f 13/9/3 8/10/3 6/11/3 15/12/3
f 36/13/4 32/14/4 2/15/4 10/16/4
f 25/17/5 7/18/5 5/19/5 30/20/5
f 27/21/6 4/22/6 2/15/6 32/14/6
f 29/23/7 34/24/7 9/25/7 1/26/7
f 34/24/7 36/27/7 10/28/7 9/25/7
f 7/29/3 14/30/3 16/31/3 5/32/3
f 13/8/6 15/33/6 23/34/6 21/35/6
f 25/36/8 38/37/8 14/38/8 7/39/8
f 40/5/6 13/8/6 21/35/6 44/40/6
f 1/41/1 9/42/1 12/43/1 3/44/1
f 10/16/6 11/45/6 19/46/6 18/47/6
f 22/48/3 21/49/3 23/50/3 24/51/3
f 42/52/8 44/53/8 21/54/8 22/55/8
f 17/56/1 18/57/1 19/58/1 20/59/1
f 15/12/9 16/31/9 24/51/9 23/50/9
f 12/60/5 9/61/5 17/62/5 20/63/5
f 37/64/5 12/60/5 20/63/5 41/65/5
f 9/42/10 10/1/10 18/57/10 17/56/10
f 16/66/5 14/67/5 22/68/5 24/69/5
f 14/67/5 38/70/5 42/71/5 22/68/5
f 38/70/5 37/64/5 41/65/5 42/71/5
f 20/72/8 19/73/8 43/74/8 41/75/8
f 41/75/8 43/74/8 44/53/8 42/52/8
f 11/45/6 39/76/6 43/77/6 19/46/6
f 39/76/6 40/5/6 44/40/6 43/77/6
f 3/78/8 12/79/8 37/80/8 26/81/8
f 26/81/8 37/80/8 38/37/8 25/36/8
f 16/82/7 15/83/7 35/84/7 33/85/7
f 28/86/11 27/87/11 45/88/11 46/89/11
f 5/90/7 16/82/7 33/85/7 30/91/7
f 30/91/7 33/85/7 34/24/7 29/23/7
f 8/7/6 28/6/6 31/92/6 6/93/6
f 35/94/1 31/95/1 47/96/1 51/97/1
f 3/98/5 26/99/5 29/100/5 1/101/5
f 26/99/5 25/17/5 30/20/5 29/100/5
f 15/33/4 6/93/4 31/92/4 35/102/4
f 36/103/3 34/104/3 50/105/3 52/106/3
f 11/45/2 4/22/2 27/21/2 39/76/2
f 39/107/2 27/108/2 28/109/2 40/110/2
f 49/111/7 51/112/7 52/113/7 50/114/7
f 46/115/6 45/116/6 48/117/6 47/118/6
f 51/119/12 47/118/12 48/117/12 52/120/12
f 31/95/1 28/86/1 46/121/1 47/96/1
f 33/122/1 35/94/1 51/97/1 49/123/1
f 32/124/3 36/103/3 52/106/3 48/125/3
f 27/126/3 32/124/3 48/125/3 45/127/3
f 34/128/13 33/129/13 49/130/13 50/131/13
o turret_large1_base_Cylinder
v 0.000000 -0.040000 -0.400000
v -0.000000 0.040000 -0.101291
v 0.282843 -0.040000 -0.282843
v 0.071624 0.040000 -0.071624
v 0.400000 -0.040000 0.000000
v 0.101291 0.040000 0.000000
v 0.282843 -0.040000 0.282843
v 0.071624 0.040000 0.071624
v -0.000000 -0.040000 0.400000
v -0.000000 0.040000 0.101291
v -0.282843 -0.040000 0.282843
v -0.071624 0.040000 0.071624
v -0.400000 -0.040000 -0.000000
v -0.101291 0.040000 -0.000000
v -0.282843 -0.040000 -0.282843
v -0.071624 0.040000 -0.071624
v 0.261275 0.040000 -0.261275
v -0.000000 0.040000 -0.369498
v 0.369498 0.040000 0.000000
v 0.261275 0.040000 0.261275
v -0.000000 0.040000 0.369498
v -0.261275 0.040000 0.261275
v -0.369498 0.040000 -0.000000
v -0.261275 0.040000 -0.261275
v 0.071624 0.112955 -0.071624
v 0.000000 0.112955 -0.101291
v 0.101291 0.112955 0.000000
v 0.071624 0.112955 0.071624
v -0.000000 0.112955 0.101291
v -0.071624 0.112955 0.071624
v -0.101291 0.112955 -0.000000
v -0.071624 0.112955 -0.071624
vt 0.800781 0.687500
vt 0.800781 0.697266
vt 0.746094 0.697266
vt 0.746094 0.687500
vt 0.800781 0.687500
vt 0.800781 0.697266
vt 0.746094 0.697266
vt 0.746094 0.687500
vt 0.691406 0.697266
vt 0.691406 0.687500
vt 0.746094 0.687500
vt 0.746094 0.697266
vt 0.691406 0.697266
vt 0.691406 0.687500
vt 0.800781 0.687500
vt 0.800781 0.697266
vt 0.746094 0.697266
vt 0.746094 0.687500
vt 0.800781 0.687500
vt 0.800781 0.697266
vt 0.746094 0.697266
vt 0.746094 0.687500
vt 0.871094 0.109375
vt 0.863281 0.109375
vt 0.863281 0.101562
vt 0.871094 0.101562
vt 0.691406 0.697266
vt 0.691406 0.687500
vt 0.746094 0.687500
vt 0.746094 0.697266
vt 0.691406 0.697266
vt 0.691406 0.687500
vt 0.777344 0.132812
vt 0.787109 0.128906
vt 0.791016 0.119141
vt 0.787109 0.109375
vt 0.777344 0.105469
vt 0.767578 0.109375
vt 0.763672 0.119141
vt 0.767578 0.128906
vt 0.718750 0.640625
vt 0.724609 0.638672
vt 0.740234 0.654297
vt 0.718750 0.662109
vt 0.726562 0.632812
vt 0.748047 0.632812
vt 0.724609 0.626953
vt 0.740234 0.611328
vt 0.718750 0.625000
vt 0.718750 0.603516
vt 0.712891 0.626953
vt 0.697266 0.611328
vt 0.710938 0.632812
vt 0.689453 0.632812
vt 0.712891 0.638672
vt 0.697266 0.654297
vt 0.761719 0.119141
vt 0.761719 0.125000
vt 0.757812 0.128906
vt 0.751953 0.128906
vt 0.748047 0.125000
vt 0.748047 0.119141
vt 0.751953 0.115234
vt 0.757812 0.115234
vt 0.839844 0.101562
vt 0.847656 0.101562
vt 0.847656 0.109375
vt 0.839844 0.109375
vt 0.871094 0.101562
vt 0.878906 0.101562
vt 0.878906 0.109375
vt 0.871094 0.109375
vt 0.886719 0.101562
vt 0.886719 0.109375
vt 0.894531 0.109375
vt 0.886719 0.109375
vt 0.886719 0.101562
vt 0.894531 0.101562
vt 0.855469 0.109375
vt 0.855469 0.101562
vt 0.855469 0.101562
vt 0.855469 0.109375
vt 0.902344 0.109375
vt 0.902344 0.101562
vn 0.3609 0.3322 -0.8714
vn 0.8714 0.3322 -0.3609
vn 0.8714 0.3322 0.3609
vn 0.3609 0.3322 0.8714
vn -0.3609 0.3322 0.8714
vn -0.8714 0.3322 0.3609
vn -0.3827 0.0000 0.9239
vn -0.8714 0.3322 -0.3609
vn -0.3609 0.3322 -0.8714
vn 0.0000 -1.0000 0.0000
vn 0.0000 1.0000 0.0000
vn 0.9239 -0.0000 0.3827
vn 0.3827 -0.0000 -0.9239
vn -0.3827 0.0000 -0.9239
vn -0.9239 0.0000 0.3827
vn 0.3827 -0.0000 0.9239
vn 0.9239 -0.0000 -0.3827
vn -0.9239 0.0000 -0.3827
usemtl capitalShipHullTexture
s off
f 53/132/14 70/133/14 69/134/14 55/135/14
f 55/136/15 69/137/15 71/138/15 57/139/15
f 57/139/16 71/138/16 72/140/16 59/141/16
f 59/142/17 72/143/17 73/144/17 61/145/17
f 61/146/18 73/147/18 74/148/18 63/149/18
f 63/150/19 74/151/19 75/152/19 65/153/19
f 64/154/20 62/155/20 81/156/20 82/157/20
f 65/153/21 75/152/21 76/158/21 67/159/21
f 67/160/22 76/161/22 70/162/22 53/163/22
f 53/164/23 55/165/23 57/166/23 59/167/23 61/168/23 63/169/23 65/170/23 67/171/23
f 54/172/24 56/173/24 69/174/24 70/175/24
f 56/173/24 58/176/24 71/177/24 69/174/24
f 58/176/24 60/178/24 72/179/24 71/177/24
f 60/178/24 62/180/24 73/181/24 72/179/24
f 62/180/24 64/182/24 74/183/24 73/181/24
f 64/182/24 66/184/24 75/185/24 74/183/24
f 66/184/24 68/186/24 76/187/24 75/185/24
f 68/186/24 54/172/24 70/175/24 76/187/24
f 77/188/24 78/189/24 84/190/24 83/191/24 82/192/24 81/193/24 80/194/24 79/195/24
f 60/196/25 58/197/25 79/198/25 80/199/25
f 56/200/26 54/201/26 78/202/26 77/203/26
f 54/201/27 68/204/27 84/205/27 78/202/27
f 66/206/28 64/207/28 82/208/28 83/209/28
f 62/155/29 60/210/29 80/211/29 81/156/29
f 58/197/30 56/212/30 77/213/30 79/198/30
f 68/214/31 66/206/31 83/209/31 84/215/31
o turret_large1_barrel_Cylinder.001
v 0.000000 0.169838 -0.050000
v 0.035355 0.169838 -0.035355
v 0.050000 0.169838 0.000000
v 0.035355 0.169838 0.035355
v -0.000000 0.169838 0.050000
v -0.035355 0.169838 0.035355
v -0.050000 0.169838 -0.000000
v -0.035355 0.169838 -0.035355
v 0.000000 0.389193 -0.050000
v 0.035355 0.389193 -0.035355
v 0.050000 0.389193 0.000000
v 0.035355 0.389193 0.035355
v -0.000000 0.389193 0.050000
v -0.035355 0.389193 0.035355
v -0.050000 0.389193 -0.000000
v -0.035355 0.389193 -0.035355
v 0.000000 0.706239 -0.040477
v -0.000000 0.402924 -0.068239
v 0.040477 0.706239 0.000000
v -0.000000 0.706239 0.040477
v -0.040477 0.706239 -0.000000
v 0.048252 0.402924 -0.048252
v 0.068239 0.402924 0.000000
v 0.048252 0.402924 0.048252
v -0.000000 0.402924 0.068239
v -0.048252 0.402924 0.048252
v -0.068239 0.402924 -0.000000
v -0.048252 0.402924 -0.048252
v -0.000000 0.492208 -0.068239
v 0.000000 0.492686 -0.056585
v 0.000000 0.537567 -0.056585
v -0.000000 0.538045 -0.068239
v 0.048252 0.538045 -0.048252
v 0.040012 0.537567 -0.040012
v 0.040012 0.492686 -0.040012
v 0.048252 0.492208 -0.048252
v 0.068239 0.538045 0.000000
v 0.056586 0.537567 0.000000
v 0.056586 0.492686 0.000000
v 0.068239 0.492208 0.000000
v 0.048252 0.538045 0.048252
v 0.040012 0.537567 0.040012
v 0.040012 0.492686 0.040012
v 0.048252 0.492208 0.048252
v -0.000000 0.538045 0.068239
v 0.000000 0.537567 0.056585
v 0.000000 0.492686 0.056585
v -0.000000 0.492208 0.068239
v -0.048252 0.538045 0.048252
v -0.040012 0.537567 0.040012
v -0.040012 0.492686 0.040012
v -0.048252 0.492208 0.048252
v -0.068239 0.538045 -0.000000
v -0.056585 0.537567 -0.000000
v -0.056585 0.492686 -0.000000
v -0.068239 0.492208 -0.000000
v -0.048252 0.538045 -0.048252
v -0.040012 0.537567 -0.040012
v -0.040012 0.492686 -0.040012
v -0.048252 0.492208 -0.048252
v 0.032169 0.706239 -0.032169
v -0.000000 0.706239 -0.045494
v 0.045494 0.706239 0.000000
v 0.032169 0.706239 0.032169
v -0.000000 0.706239 0.045494
v -0.032169 0.706239 0.032169
v -0.045494 0.706239 -0.000000
v -0.032169 0.706239 -0.032169
v 0.000000 0.893799 -0.040477
v 0.040477 0.893799 0.000000
v -0.000000 0.893799 0.040477
v -0.040477 0.893799 -0.000000
vt 0.072266 0.285156
vt 0.072266 0.302734
vt 0.080078 0.306641
vt 0.080078 0.281250
vt 0.072266 0.285156
vt 0.072266 0.302734
vt 0.080078 0.306641
vt 0.080078 0.281250
vt 0.072266 0.285156
vt 0.072266 0.302734
vt 0.080078 0.306641
vt 0.080078 0.281250
vt 0.072266 0.285156
vt 0.072266 0.302734
vt 0.080078 0.306641
vt 0.080078 0.281250
vt 0.072266 0.285156
vt 0.072266 0.302734
vt 0.080078 0.306641
vt 0.080078 0.281250
vt 0.072266 0.285156
vt 0.072266 0.302734
vt 0.080078 0.306641
vt 0.080078 0.281250
vt 0.072266 0.285156
vt 0.072266 0.302734
vt 0.080078 0.306641
vt 0.080078 0.281250
vt 0.072266 0.285156
vt 0.072266 0.302734
vt 0.080078 0.306641
vt 0.080078 0.281250
vt 0.890724 0.154229
vt 0.845460 0.109056
vt 0.845460 0.045173
vt 0.890724 0.000000
vt 0.954736 0.000000
vt 1.000000 0.045173
vt 1.000000 0.109056
vt 0.954736 0.154229
vt 0.710938 0.193359
vt 0.644531 0.193359
vt 0.644531 0.183594
vt 0.710938 0.183594
vt 0.710938 0.193359
vt 0.644531 0.193359
vt 0.644531 0.183594
vt 0.710938 0.183594
vt 0.710938 0.193359
vt 0.644531 0.193359
vt 0.644531 0.183594
vt 0.710938 0.183594
vt 0.710938 0.193359
vt 0.644531 0.193359
vt 0.644531 0.183594
vt 0.710938 0.183594
vt 0.710938 0.193359
vt 0.644531 0.193359
vt 0.644531 0.183594
vt 0.710938 0.183594
vt 0.710938 0.193359
vt 0.644531 0.193359
vt 0.644531 0.183594
vt 0.710938 0.183594
vt 0.710938 0.193359
vt 0.644531 0.193359
vt 0.644531 0.183594
vt 0.710938 0.183594
vt 0.710938 0.193359
vt 0.644531 0.193359
vt 0.644531 0.183594
vt 0.710938 0.183594
vt 0.035156 0.275391
vt 0.031250 0.328125
vt 0.019531 0.328125
vt 0.015625 0.275391
vt 0.035156 0.275391
vt 0.031250 0.328125
vt 0.019531 0.328125
vt 0.015625 0.275391
vt 0.035156 0.275391
vt 0.031250 0.328125
vt 0.019531 0.328125
vt 0.015625 0.275391
vt 0.031250 0.328125
vt 0.035156 0.275391
vt 0.019531 0.328125
vt 0.015625 0.275391
vt 0.035156 0.275391
vt 0.031250 0.328125
vt 0.019531 0.328125
vt 0.015625 0.275391
vt 0.035156 0.275391
vt 0.031250 0.328125
vt 0.019531 0.328125
vt 0.015625 0.275391
vt 0.039062 0.376953
vt 0.039062 0.406250
vt 0.052734 0.406250
vt 0.052734 0.376953
vt 0.457031 0.824219
vt 0.460938 0.820312
vt 0.474609 0.828125
vt 0.474609 0.832031
vt 0.777344 0.349609
vt 0.777344 0.357422
vt 0.761719 0.357422
vt 0.761719 0.349609
vt 0.460938 0.820312
vt 0.457031 0.824219
vt 0.474609 0.832031
vt 0.474609 0.828125
vt 0.052734 0.376953
vt 0.052734 0.406250
vt 0.066406 0.406250
vt 0.066406 0.376953
vt 0.449219 0.806641
vt 0.453125 0.806641
vt 0.792969 0.349609
vt 0.792969 0.357422
vt 0.453125 0.806641
vt 0.449219 0.806641
vt 0.039062 0.376953
vt 0.039062 0.406250
vt 0.457031 0.789062
vt 0.460938 0.792969
vt 0.777344 0.349609
vt 0.777344 0.357422
vt 0.761719 0.357422
vt 0.761719 0.349609
vt 0.460938 0.792969
vt 0.457031 0.789062
vt 0.052734 0.376953
vt 0.052734 0.406250
vt 0.066406 0.406250
vt 0.066406 0.376953
vt 0.474609 0.781250
vt 0.474609 0.785156
vt 0.792969 0.349609
vt 0.792969 0.357422
vt 0.474609 0.785156
vt 0.474609 0.781250
vt 0.039062 0.376953
vt 0.039062 0.406250
vt 0.492188 0.789062
vt 0.488281 0.792969
vt 0.777344 0.349609
vt 0.777344 0.357422
vt 0.761719 0.357422
vt 0.761719 0.349609
vt 0.488281 0.792969
vt 0.492188 0.789062
vt 0.052734 0.376953
vt 0.052734 0.406250
vt 0.066406 0.406250
vt 0.066406 0.376953
vt 0.500000 0.806641
vt 0.496094 0.806641
vt 0.792969 0.349609
vt 0.792969 0.357422
vt 0.496094 0.806641
vt 0.500000 0.806641
vt 0.039062 0.376953
vt 0.039062 0.406250
vt 0.492188 0.824219
vt 0.488281 0.820312
vt 0.777344 0.349609
vt 0.777344 0.357422
vt 0.761719 0.357422
vt 0.761719 0.349609
vt 0.488281 0.820312
vt 0.492188 0.824219
vt 0.066406 0.406250
vt 0.066406 0.376953
vt 0.792969 0.349609
vt 0.792969 0.357422
vt 0.474609 0.828125
vt 0.496094 0.806641
vt 0.500000 0.806641
vt 0.492188 0.824219
vt 0.474609 0.832031
vt 0.474609 0.785156
vt 0.474609 0.781250
vt 0.492188 0.789062
vt 0.453125 0.806641
vt 0.449219 0.806641
vt 0.457031 0.789062
vt 0.457031 0.824219
vt 0.693359 0.187500
vt 0.693359 0.201172
vt 0.644531 0.201172
vt 0.644531 0.187500
vt 0.644531 0.187500
vt 0.693359 0.187500
vt 0.693359 0.201172
vt 0.644531 0.201172
vt 0.644531 0.187500
vt 0.693359 0.187500
vt 0.693359 0.201172
vt 0.644531 0.201172
vt 0.644531 0.187500
vt 0.693359 0.187500
vt 0.693359 0.201172
vt 0.644531 0.201172
vt 0.751953 0.125000
vt 0.751953 0.119141
vt 0.757812 0.119141
vt 0.757812 0.125000
vn 0.5836 -0.7752 -0.2417
vn -0.5836 -0.7752 -0.2417
vn -0.2417 -0.7752 0.5836
vn 0.5836 -0.7752 0.2417
vn 0.2417 -0.7752 -0.5836
vn -0.2417 -0.7752 -0.5836
vn -0.5836 -0.7752 0.2417
vn 0.2417 -0.7752 0.5836
vn 0.0000 -1.0000 0.0000
vn -0.3827 0.0000 -0.9239
vn -0.9239 0.0000 -0.3827
vn -0.9239 0.0000 0.3827
vn -0.3827 0.0000 0.9239
vn 0.3827 0.0000 0.9239
vn 0.9239 0.0000 0.3827
vn 0.9239 0.0000 -0.3827
vn 0.3827 0.0000 -0.9239
vn 0.3797 0.1240 -0.9168
vn 0.9168 0.1240 -0.3797
vn 0.9168 0.1240 0.3797
vn 0.3797 0.1240 0.9168
vn -0.3797 0.1240 0.9168
vn -0.9168 0.1240 0.3797
vn -0.9168 0.1240 -0.3797
vn -0.3797 0.1240 -0.9168
vn -0.0170 0.9990 -0.0410
vn -0.0170 -0.9990 -0.0410
vn -0.0410 0.9990 -0.0170
vn -0.0410 -0.9990 -0.0170
vn -0.0410 0.9990 0.0170
vn -0.0410 -0.9990 0.0170
vn -0.0170 0.9990 0.0410
vn -0.0170 -0.9990 0.0410
vn 0.0170 0.9990 0.0410
vn 0.0170 -0.9990 0.0410
vn 0.0410 0.9990 0.0170
vn 0.0410 -0.9990 0.0170
vn 0.0410 0.9990 -0.0170
vn 0.0410 -0.9990 -0.0170
vn 0.0170 0.9990 -0.0410
vn 0.0170 -0.9990 -0.0410
vn 0.0000 1.0000 -0.0000
vn -0.7071 0.0000 -0.7071
vn 0.7071 0.0000 -0.7071
vn -0.7071 0.0000 0.7071
vn 0.7071 0.0000 0.7071
usemtl capitalShipHullTexture
s off
f 95/216/32 94/217/32 106/218/32 107/219/32
f 100/220/33 99/221/33 111/222/33 112/223/33
f 98/224/34 97/225/34 109/226/34 110/227/34
f 96/228/35 95/229/35 107/230/35 108/231/35
f 94/232/36 93/233/36 102/234/36 106/235/36
f 93/236/37 100/237/37 112/238/37 102/239/37
f 99/240/38 98/241/38 110/242/38 111/243/38
f 97/244/39 96/245/39 108/246/39 109/247/39
f 85/248/40 86/249/40 87/250/40 88/251/40 89/252/40 90/253/40 91/254/40 92/255/40
f 92/256/41 100/257/41 93/258/41 85/259/41
f 91/260/42 99/261/42 100/262/42 92/263/42
f 90/264/43 98/265/43 99/266/43 91/267/43
f 89/268/44 97/269/44 98/270/44 90/271/44
f 88/272/45 96/273/45 97/274/45 89/275/45
f 87/276/46 95/277/46 96/278/46 88/279/46
f 86/280/47 94/281/47 95/282/47 87/283/47
f 85/284/48 93/285/48 94/286/48 86/287/48
f 116/288/49 146/289/49 145/290/49 117/291/49
f 117/292/50 145/293/50 147/294/50 121/295/50
f 121/296/51 147/297/51 148/298/51 125/299/51
f 125/299/52 148/298/52 149/300/52 129/301/52
f 129/301/53 149/300/53 150/302/53 133/303/53
f 133/304/54 150/305/54 151/306/54 137/307/54
f 137/308/55 151/309/55 152/310/55 141/311/55
f 141/311/56 152/310/56 146/289/56 116/288/56
f 112/312/41 144/313/41 113/314/41 102/315/41
f 144/316/57 143/317/57 114/318/57 113/319/57
f 143/320/41 142/321/41 115/322/41 114/323/41
f 142/324/58 141/325/58 116/326/58 115/327/58
f 111/328/42 140/329/42 144/330/42 112/331/42
f 140/332/59 139/333/59 143/317/59 144/316/59
f 139/334/42 138/335/42 142/321/42 143/320/42
f 138/336/60 137/337/60 141/325/60 142/324/60
f 110/338/43 136/339/43 140/329/43 111/328/43
f 136/340/61 135/341/61 139/333/61 140/332/61
f 135/342/43 134/343/43 138/344/43 139/345/43
f 134/346/62 133/347/62 137/337/62 138/336/62
f 109/348/44 132/349/44 136/350/44 110/351/44
f 132/352/63 131/353/63 135/341/63 136/340/63
f 131/354/44 130/355/44 134/343/44 135/342/44
f 130/356/64 129/357/64 133/347/64 134/346/64
f 108/358/45 128/359/45 132/349/45 109/348/45
f 128/360/65 127/361/65 131/353/65 132/352/65
f 127/362/45 126/363/45 130/364/45 131/365/45
f 126/366/66 125/367/66 129/357/66 130/356/66
f 107/368/46 124/369/46 128/370/46 108/371/46
f 124/372/67 123/373/67 127/361/67 128/360/67
f 123/374/46 122/375/46 126/363/46 127/362/46
f 122/376/68 121/377/68 125/367/68 126/366/68
f 106/378/47 120/379/47 124/369/47 107/368/47
f 120/380/69 119/381/69 123/373/69 124/372/69
f 119/382/47 118/383/47 122/384/47 123/385/47
f 118/386/70 117/387/70 121/377/70 122/376/70
f 102/315/48 113/314/48 120/388/48 106/389/48
f 113/319/71 114/318/71 119/381/71 120/380/71
f 114/390/48 115/391/48 118/383/48 119/382/48
f 115/327/72 116/326/72 117/387/72 118/386/72
f 101/392/73 103/393/73 147/394/73 145/395/73 146/396/73
f 103/393/73 104/397/73 149/398/73 148/399/73 147/394/73
f 104/397/73 105/400/73 151/401/73 150/402/73 149/398/73
f 105/400/73 101/392/73 146/396/73 152/403/73 151/401/73
f 156/404/74 153/405/74 101/406/74 105/407/74
f 101/408/75 153/409/75 154/410/75 103/411/75
f 104/412/76 155/413/76 156/414/76 105/415/76
f 103/416/77 154/417/77 155/418/77 104/419/77
f 155/420/73 154/421/73 153/422/73 156/423/73
